REM DIRINDEX 1\2,1\3,1\4,1\5,1\6
REM DIRNAME cjc091,folder01,folder02,folder03,folder04,folder05
TITLE ""
FILE "CD1-05.mp3" MP3
  TRACK 01 AUDIO
    TITLE "6:cjc091_0096"
    INDEX 01 00:00:00
  TRACK 02 AUDIO
    TITLE "0:"
    INDEX 01 00:01:66
  TRACK 03 AUDIO
    TITLE "2:cjc091_0097"
    INDEX 01 00:03:12
  TRACK 04 AUDIO
    TITLE "0:"
    INDEX 01 00:04:42
  TRACK 05 AUDIO
    TITLE "3:cjc091_0098"
    INDEX 01 00:04:62
  TRACK 06 AUDIO
    TITLE "0:"
    INDEX 01 00:06:43
  TRACK 07 AUDIO
    TITLE "4:cjc091_0099"
    INDEX 01 00:06:67
  TRACK 08 AUDIO
    TITLE "0:"
    INDEX 01 00:09:67
  TRACK 09 AUDIO
    TITLE "2:cjc091_0100"
    INDEX 01 00:10:74
  TRACK 10 AUDIO
    TITLE "0:"
    INDEX 01 00:13:10
  TRACK 11 AUDIO
    TITLE "3:cjc091_0101"
    INDEX 01 00:13:26
  TRACK 12 AUDIO
    TITLE "0:"
    INDEX 01 00:15:25
  TRACK 13 AUDIO
    TITLE "4:cjc091_0102"
    INDEX 01 00:15:50
  TRACK 14 AUDIO
    TITLE "0:"
    INDEX 01 00:22:46
  TRACK 15 AUDIO
    TITLE "2:cjc091_0103"
    INDEX 01 00:23:46
  TRACK 16 AUDIO
    TITLE "0:"
    INDEX 01 00:25:05
  TRACK 17 AUDIO
    TITLE "3:cjc091_0104"
    INDEX 01 00:25:07
  TRACK 18 AUDIO
    TITLE "0:"
    INDEX 01 00:26:05
  TRACK 19 AUDIO
    TITLE "4:cjc091_0105"
    INDEX 01 00:26:26
  TRACK 20 AUDIO
    TITLE "0:"
    INDEX 01 00:30:48
  TRACK 21 AUDIO
    TITLE "2:cjc091_0106"
    INDEX 01 00:31:63
  TRACK 22 AUDIO
    TITLE "0:"
    INDEX 01 00:33:13
  TRACK 23 AUDIO
    TITLE "3:cjc091_0107"
    INDEX 01 00:33:32
  TRACK 24 AUDIO
    TITLE "0:"
    INDEX 01 00:35:00
  TRACK 25 AUDIO
    TITLE "4:cjc091_0108"
    INDEX 01 00:35:21
  TRACK 26 AUDIO
    TITLE "0:"
    INDEX 01 00:38:18
  TRACK 27 AUDIO
    TITLE "2:cjc091_0109"
    INDEX 01 00:39:25
  TRACK 28 AUDIO
    TITLE "0:"
    INDEX 01 00:40:68
  TRACK 29 AUDIO
    TITLE "3:cjc091_0110"
    INDEX 01 00:41:10
  TRACK 30 AUDIO
    TITLE "0:"
    INDEX 01 00:43:11
  TRACK 31 AUDIO
    TITLE "4:cjc091_0111"
    INDEX 01 00:43:44
  TRACK 32 AUDIO
    TITLE "0:"
    INDEX 01 00:46:17
  TRACK 33 AUDIO
    TITLE "2:cjc091_0112"
    INDEX 01 00:47:25
  TRACK 34 AUDIO
    TITLE "0:"
    INDEX 01 00:48:24
  TRACK 35 AUDIO
    TITLE "3:cjc091_0113"
    INDEX 01 00:48:46
  TRACK 36 AUDIO
    TITLE "0:"
    INDEX 01 00:50:27
  TRACK 37 AUDIO
    TITLE "4:cjc091_0114"
    INDEX 01 00:50:58
  TRACK 38 AUDIO
    TITLE "0:"
    INDEX 01 00:53:33
  TRACK 39 AUDIO
    TITLE "2:cjc091_0115"
    INDEX 01 00:54:36
  TRACK 40 AUDIO
    TITLE "0:"
    INDEX 01 00:55:57
  TRACK 41 AUDIO
    TITLE "3:cjc091_0116"
    INDEX 01 00:55:69
  TRACK 42 AUDIO
    TITLE "0:"
    INDEX 01 00:57:37
  TRACK 43 AUDIO
    TITLE "4:cjc091_0117"
    INDEX 01 00:57:62
  TRACK 44 AUDIO
    TITLE "0:"
    INDEX 01 01:00:74
  TRACK 45 AUDIO
    TITLE "2:cjc091_0118"
    INDEX 01 01:02:05
  TRACK 46 AUDIO
    TITLE "0:"
    INDEX 01 01:03:33
  TRACK 47 AUDIO
    TITLE "3:cjc091_0119"
    INDEX 01 01:03:39
  TRACK 48 AUDIO
    TITLE "0:"
    INDEX 01 01:05:44
  TRACK 49 AUDIO
    TITLE "4:cjc091_0120"
    INDEX 01 01:05:68
  TRACK 50 AUDIO
    TITLE "0:"
    INDEX 01 01:10:37
  TRACK 51 AUDIO
    TITLE "2:cjc091_0121"
    INDEX 01 01:11:49
  TRACK 52 AUDIO
    TITLE "0:"
    INDEX 01 01:13:26
  TRACK 53 AUDIO
    TITLE "3:cjc091_0122"
    INDEX 01 01:13:45
  TRACK 54 AUDIO
    TITLE "0:"
    INDEX 01 01:15:60
  TRACK 55 AUDIO
    TITLE "4:cjc091_0123"
    INDEX 01 01:16:01
  TRACK 56 AUDIO
    TITLE "0:"
    INDEX 01 01:18:17
  TRACK 57 AUDIO
    TITLE "2:cjc091_0124"
    INDEX 01 01:19:25
  TRACK 58 AUDIO
    TITLE "0:"
    INDEX 01 01:20:73
  TRACK 59 AUDIO
    TITLE "3:cjc091_0125"
    INDEX 01 01:21:14
  TRACK 60 AUDIO
    TITLE "0:"
    INDEX 01 01:22:54
  TRACK 61 AUDIO
    TITLE "4:cjc091_0126"
    INDEX 01 01:23:05
  TRACK 62 AUDIO
    TITLE "0:"
    INDEX 01 01:26:68
  TRACK 63 AUDIO
    TITLE "2:cjc091_0127"
    INDEX 01 01:28:04
  TRACK 64 AUDIO
    TITLE "0:"
    INDEX 01 01:30:34
  TRACK 65 AUDIO
    TITLE "3:cjc091_0128"
    INDEX 01 01:30:46
  TRACK 66 AUDIO
    TITLE "0:"
    INDEX 01 01:32:41
  TRACK 67 AUDIO
    TITLE "4:cjc091_0129"
    INDEX 01 01:32:64
  TRACK 68 AUDIO
    TITLE "0:"
    INDEX 01 01:38:06
  TRACK 69 AUDIO
    TITLE "2:cjc091_0130"
    INDEX 01 01:39:10
  TRACK 70 AUDIO
    TITLE "0:"
    INDEX 01 01:40:13
  TRACK 71 AUDIO
    TITLE "3:cjc091_0131"
    INDEX 01 01:40:29
  TRACK 72 AUDIO
    TITLE "0:"
    INDEX 01 01:42:10
  TRACK 73 AUDIO
    TITLE "4:cjc091_0132"
    INDEX 01 01:42:33
  TRACK 74 AUDIO
    TITLE "0:"
    INDEX 01 01:45:45
  TRACK 75 AUDIO
    TITLE "2:cjc091_0133"
    INDEX 01 01:46:53
  TRACK 76 AUDIO
    TITLE "0:"
    INDEX 01 01:48:18
  TRACK 77 AUDIO
    TITLE "3:cjc091_0134"
    INDEX 01 01:48:26
  TRACK 78 AUDIO
    TITLE "0:"
    INDEX 01 01:50:00
  TRACK 79 AUDIO
    TITLE "4:cjc091_0135"
    INDEX 01 01:50:23
  TRACK 80 AUDIO
    TITLE "0:"
    INDEX 01 01:53:57
  TRACK 81 AUDIO
    TITLE "2:cjc091_0136"
    INDEX 01 01:54:68
  TRACK 82 AUDIO
    TITLE "0:"
    INDEX 01 01:55:69
  TRACK 83 AUDIO
    TITLE "3:cjc091_0137"
    INDEX 01 01:56:14
  TRACK 84 AUDIO
    TITLE "0:"
    INDEX 01 01:58:01
  TRACK 85 AUDIO
    TITLE "4:cjc091_0138"
    INDEX 01 01:58:27
  TRACK 86 AUDIO
    TITLE "0:"
    INDEX 01 02:03:16
  TRACK 87 AUDIO
    TITLE "2:cjc091_0139"
    INDEX 01 02:04:27
  TRACK 88 AUDIO
    TITLE "0:"
    INDEX 01 02:05:31
  TRACK 89 AUDIO
    TITLE "3:cjc091_0140"
    INDEX 01 02:05:48
  TRACK 90 AUDIO
    TITLE "0:"
    INDEX 01 02:07:16
  TRACK 91 AUDIO
    TITLE "4:cjc091_0141"
    INDEX 01 02:07:37
  TRACK 92 AUDIO
    TITLE "0:"
    INDEX 01 02:10:18
